<?xml version="1.0" encoding="utf-8"?>
<!-- Generator: Adobe Illustrator 27.5.0, SVG Export Plug-In . SVG Version: 6.00 Build 0)  -->
<svg version="1.1" id="Capa_1" xmlns="http://www.w3.org/2000/svg" xmlns:xlink="http://www.w3.org/1999/xlink" x="0px" y="0px"
	 viewBox="0 0 2122 2122" style="enable-background:new 0 0 2122 2122;" xml:space="preserve">
<g>
	<path style="fill:#F59A24;" d="M1490.021,843.597c122.568-97.551,217.593-227.123,285.759-368.165
		c50.986-105.501,87.513-221.147,95.381-337.325c-34.275-2.073-72.891,21.325-97.535,40.743
		c-170.085,134.032-309.466,313.408-435.142,488.287c-74.845,104.173-141.023,215.237-191.147,333.442
		c12.964-0.836,25.691-2.446,38.007-5.438C1296.487,968.164,1400.696,914.685,1490.021,843.597z"/>
	<path style="fill:#F07F29;" d="M1884.73,140.411c-4.414-1.281-8.955-2.017-13.569-2.305
		c-7.868,116.178-44.394,231.824-95.381,337.325c-68.166,141.042-163.191,270.614-285.759,368.165
		c-89.325,71.089-193.534,124.568-304.677,151.544c-12.317,2.991-25.043,4.602-38.007,5.438
		c-4.663,10.938-9.159,21.951-13.515,33.016c-7.6,19.291-19.985,54.485-29.33,93.535c16.517-8.331,34.032-13.949,52.516-14.646
		c31.946-1.198,62.772,12.594,89.135,30.675c20.521,14.076,39.664,31.591,49.817,54.309c6.646,14.875,8.999,30.904,8.853,47.206
		c27.868-23.683,53.486-49.33,75.546-69.525c168-153.834,312.365-347.101,415.259-557.166
		c50.036-102.188,90.28-208.368,118.641-315.917C1926.42,255.936,1949.768,159.23,1884.73,140.411z"/>
	<path style="fill:#B5C5E7;" d="M1246.144,1143.158c-26.363-18.081-57.189-31.874-89.135-30.675
		c-18.485,0.697-36,6.315-52.516,14.646c-17.442,8.799-33.764,20.624-48.891,32.979c-28.779,23.498-55.449,49.583-79.581,77.837
		c-13.451,15.742-26.436,33.432-34.163,52.438c29.125-6.529,59.259-8.175,89.038-3.892
		c73.174,10.519,142.187,65.115,182.518,131.244c8.916,14.621,16.424,29.822,22.266,45.238
		c34.382-43.562,51.24-115.839,62.538-167.678c3.601-16.512,6.441-33.71,6.597-50.621c0.146-16.302-2.207-32.331-8.853-47.206
		C1285.807,1174.749,1266.665,1157.234,1246.144,1143.158z"/>
	<path style="fill:#C77048;" d="M1055.045,1394.724c-97.959,3.25-197.744,46.144-253.637,126.646
		c-11.133,16.044-18.967,34.557-25.949,53.676c2.407,4.984,4,10.455,5.131,16.19c4.472,22.68,2.266,49.174,19.712,63.537
		c13.881,11.42,35.231,9.247,50.5-0.229c15.269-9.481,25.871-24.745,36.019-39.581c19.147-27.922,38.295-55.873,57.428-83.81
		c9.359-13.671,19.055-27.678,32.891-36.75c30.212-19.824,76.57-7.065,92.365,25.418c16.984,34.938-0.818,76.867-23.912,108.083
		c-23.114,31.235-52.502,59.912-62.144,97.544c-4.809,18.797-3.055,41.432,11.888,53.813c13.466,11.132,32.707,10.426,49.949,13.271
		c7.143,1.179,14.655,3.859,20.945,7.8c41.471-27.415,79.4-59.459,112.141-95.142c52.716-57.418,84.736-135.805,66.071-213.9
		c-2.256-9.467-5.204-18.933-8.765-28.317c-5.842-15.416-13.349-30.616-22.266-45.238
		C1161.978,1401.842,1108.775,1392.946,1055.045,1394.724z"/>
	<path style="fill:#A95838;" d="M767.791,1564.078c3.264,3.235,5.725,6.948,7.669,10.967c6.982-19.119,14.816-37.632,25.949-53.676
		c55.893-80.502,155.678-123.396,253.637-126.646c53.729-1.778,106.933,7.118,158.367,23.011
		c-40.331-66.129-109.344-120.726-182.518-131.244c-29.779-4.283-59.912-2.636-89.038,3.892
		c-94.076,21.101-177.496,93.783-203.318,187.454c-6.061,21.983-9.345,44.901-11.776,68.034c5.242,1.306,10.412,2.879,15.376,4.575
		C751.382,1553.589,760.844,1557.194,767.791,1564.078z"/>
	<path style="fill:#6CC5D1;" d="M995.338,1779.26c-14.943-12.38-16.697-35.016-11.888-53.813
		c9.642-37.632,39.03-66.309,62.144-97.544c23.094-31.216,40.896-73.145,23.912-108.083c-15.795-32.482-62.153-45.242-92.365-25.418
		c-13.837,9.072-23.532,23.079-32.891,36.75c-19.133,27.937-38.28,55.888-57.428,83.81c-10.148,14.836-20.75,30.1-36.019,39.581
		c-15.269,9.476-36.619,11.649-50.5,0.229c-17.447-14.363-15.24-40.857-19.712-63.537c-4.453,1.223-8.809,2.562-12.863,4.244
		c-28.964,11.951-45.057,44.312-47.659,75.542c-1.895,22.767,5.881,50.523,27.927,56.502c14.504,3.936,29.359-3.221,43.873-7.104
		c14.509-3.883,33.593-2.377,39.717,11.342c4.682,10.504-1.052,22.865-8.828,31.332c-11.917,12.941-28.282,20.819-44.765,26.918
		c-38.314,14.168-79.001,20.288-118.938,28.877c-39.927,8.604-80.165,20.112-113.666,43.488
		c-23.849,16.638-38.597,37.671-52.327,62.655c34.67,30.387,80.751,45.549,126.494,52.818
		c77.184,12.268,157.393,3.761,230.635-23.362c69.925-25.881,128.258-71.839,197.939-99.746
		c14.621-5.871,31.576-14.748,32.692-30.456c0.735-10.222-5.691-18.368-14.592-23.956c-6.29-3.941-13.803-6.621-20.945-7.8
		C1028.044,1789.686,1008.804,1790.392,995.338,1779.26z"/>
	<path style="fill:#B4DEE8;" d="M840.522,1900.219c-89.242,34.807-185.876,37.905-277.086,8.555
		c-11.937-3.839-17.047,14.919-5.169,18.743c94.085,30.271,195.318,27.371,287.419-8.556
		C857.214,1914.465,852.2,1895.663,840.522,1900.219z"/>
	<path style="fill:#B4DEE8;" d="M966.232,1849.393c-29.486,6.241-57.135,17.686-82.426,34.076
		c-10.456,6.781-0.726,23.615,9.812,16.784c24.044-15.586,49.749-26.188,77.784-32.117
		C983.63,1865.549,978.456,1846.806,966.232,1849.393z"/>
	<path style="fill:#B4DEE8;" d="M977.842,1687.796c21.413-28.292,121.12-165.423,30.923-172.833
		c-12.468-1.028-12.399,18.417,0,19.435c52.726,4.331-34.923,126.694-47.703,143.586
		C953.51,1687.956,970.383,1697.651,977.842,1687.796z"/>
	<path style="fill:#42BAC3;" d="M545.389,1862.377c33.501-23.376,73.739-34.884,113.666-43.488
		c39.937-8.589,80.624-14.709,118.938-28.877c16.482-6.1,32.847-13.978,44.765-26.918c7.776-8.467,13.51-20.828,8.828-31.332
		c-6.124-13.72-25.208-15.225-39.717-11.342c-14.514,3.883-29.369,11.04-43.873,7.104c-22.047-5.978-29.822-33.735-27.927-56.502
		c2.602-31.23,18.694-63.591,47.659-75.542c4.054-1.681,8.41-3.021,12.863-4.244c-1.131-5.734-2.724-11.206-5.131-16.19
		c-1.944-4.02-4.404-7.733-7.669-10.967c-6.947-6.884-16.409-10.489-25.652-13.632c-4.965-1.696-10.134-3.269-15.376-4.575
		c-18.592-4.638-38.183-5.71-53.418,4.955c-21.267,14.879-23.586,44.75-25.661,70.621c-4.775,59.82-24.063,125.949-76.989,154.221
		c-38.3,20.429-93.544,21.895-110.134,62.017c-11.708,28.317,4.711,60.931,26.801,82.148c1.856,1.774,3.746,3.518,5.7,5.199
		C506.793,1900.048,521.54,1879.016,545.389,1862.377z"/>
	<path style="fill:#1A1A1A;" d="M1178.173,1606.612c-12.95,28.546-24.395,56.326-42.563,82.153
		c-19.873,28.248-44.404,48.292-68.638,72.146c-0.935,0.921,0.258,2.436,1.388,1.803c52.063-29.287,99.23-97.238,112.648-154.904
		C1181.389,1606.183,1178.933,1604.936,1178.173,1606.612z"/>
	<path style="fill:#1A1A1A;" d="M1194.519,1454.777c-0.418,16.185,1.525,32.277,1.033,48.492c-0.487,16.2-2.982,32.117-4.712,48.195
		c-0.365,3.406,4.941,3.917,5.832,0.789c8.565-30.051,11.606-67.868,3.411-98.232
		C1199.24,1450.899,1194.597,1451.596,1194.519,1454.777z"/>
	<path style="fill:#1A1A1A;" d="M1261.768,1199.947c-10.358,27.888-14.095,58.918-20.078,88.009
		c-5.369,26.12-13.51,53.457-13.744,80.205c-0.014,1.311,1.681,1.34,2.12,0.287c11.318-27.235,14.767-59.016,20.653-87.849
		c5.384-26.373,13.067-53.257,14.363-80.205C1265.179,1198.383,1262.397,1198.261,1261.768,1199.947z"/>
	<path style="fill:#1A1A1A;" d="M1207.581,1171.25c-24.721,32.02-54.124,66.578-71.596,103.157
		c-1.145,2.392,1.764,4.999,3.815,2.943c28.886-28.94,51.64-68.307,73.724-102.626
		C1215.99,1170.895,1210.202,1167.859,1207.581,1171.25z"/>
	<path style="fill:#1A1A1A;" d="M1161.067,1141.404c-48.58,26.344-102.402,58.353-140.175,99.366
		c-1.559,1.695,0.443,4.58,2.538,3.289c48.297-29.783,92.662-66.806,140.638-97.525
		C1167.279,1144.478,1164.443,1139.577,1161.067,1141.404z"/>
	<path style="fill:#1A1A1A;" d="M1622.981,834.966c-39.118,51.574-75.966,104.36-119.474,152.485
		c-41.842,46.283-88.735,86.48-133.973,129.223c-2.026,1.915,0.643,5.525,3.026,3.922c52.638-35.386,98.811-82.022,141.032-129.045
		c42.382-47.201,83.478-98.068,113.12-154.404C1628.038,834.622,1624.628,832.798,1622.981,834.966z"/>
	<path style="fill:#1A1A1A;" d="M1834.069,444.677c-22.996,54.165-42.865,109.05-70.523,161.176
		c-27.571,51.966-60.083,101.016-94.782,148.463c-1.705,2.334,2.158,5.335,4.029,3.109c38.109-45.33,70.616-94.819,98.489-147.05
		c27.503-51.537,53.603-106.87,66.611-164.085C1838.391,444.109,1835.039,442.391,1834.069,444.677z"/>
	<path style="fill:#1A1A1A;" d="M1727.259,285.914c23.391-6.278,44.36-22.716,64.623-35.486c4.848-3.055,0.555-10.448-4.497-7.693
		c-21.023,11.464-45.603,21.759-62.49,39.118C1723.21,283.588,1724.901,286.547,1727.259,285.914z"/>
	<path style="fill:#1A1A1A;" d="M1768.13,321.51c-0.501,2.397,2.748,3.988,4.069,1.717c8.068-13.885,16.209-27.647,27.8-38.977
		c3.493-3.418-1.773-8.631-5.344-5.345C1782.031,290.528,1771.678,304.433,1768.13,321.51z"/>
	<path style="fill:#FCD29B;" d="M1373.003,806.554c34.115-21.084,59.927-72.711,83.64-104.265
		c54.991-73.186,109.988-146.373,164.979-219.559c8.829-11.749,17.958-24.209,19.859-38.782c1.9-14.573-6.397-31.586-20.916-33.871
		c-8.219-1.294-16.385,2.249-23.698,6.214c-45.817,24.848-78.221,68.149-109.13,110.119
		c-54.592,74.132-109.554,148.879-148.516,232.297C1325.607,787.86,1335.045,830.014,1373.003,806.554z"/>
	<path style="fill:#6CC5D1;" d="M311.115,1515.079c-24.556,51.484-20.594,117.939,17.364,160.512
		c36.049,40.448,95.132,53.247,149.052,47.873c26.768-2.665,53.564-9.428,76.477-23.513c11.864-7.289,22.67-16.706,31.196-27.795
		c1.836-6.412,0.96-11.81-6.407-12.76c-17.266-2.207-31.956,13.369-47.089,19.079c-17.198,6.46-35.771,8.024-53.466,4.867
		c-18.031-3.22-35.167-11.347-49.003-24.17c-36.721-34.017-40.634-86.875-52.843-132.409c-7.537-28.097-24.877-56.731-48.531-70.572
		c0.78,3.464,1.174,6.997,1.092,10.592C328.59,1484.088,318.574,1499.44,311.115,1515.079z"/>
	<path style="fill:#42BAC3;" d="M573.516,1693.315c3.654-4.818,9.525-13.681,11.688-21.159
		c-8.526,11.089-19.333,20.506-31.196,27.795c-22.913,14.085-49.71,20.848-76.477,23.513
		c-53.919,5.374-113.003-7.425-149.052-47.873c-37.959-42.572-41.92-109.028-17.364-160.512
		c7.459-15.639,17.476-30.991,17.842-48.297c0.083-3.596-0.312-7.128-1.092-10.592c-17.997-10.528-39.654-12.492-63.449,0.838
		c-70.056,39.23-88.078,141.695-56.77,210.29c45.486,99.698,173.228,123.805,269.213,90.241
		C511.796,1745.364,550.792,1723.25,573.516,1693.315z"/>
	<path style="fill:#6CC5D1;" d="M615.367,1585.009c9.413-19.917-45.077-44.526-51.752-63.532c-1.184-3.376-2.051-6.733-2.645-10.08
		c-9.35-52.721,75.546-141.753,8.57-181.037c-23.42-13.734-48.706-3.669-68.156,11.805
		c-65.189,51.854-70.699,152.541-12.443,211.561C506.671,1571.693,596.088,1625.696,615.367,1585.009z"/>
</g>
</svg>
